<?xml version="1.0" encoding="utf-8"?>
<!-- Generator: Adobe Illustrator 19.2.0, SVG Export Plug-In . SVG Version: 6.00 Build 0)  -->
<svg version="1.1" id="Layer_1" xmlns="http://www.w3.org/2000/svg" xmlns:xlink="http://www.w3.org/1999/xlink" x="0px" y="0px"
	 viewBox="0 0 1488.1 825.1" style="enable-background:new 0 0 1488.1 825.1;" xml:space="preserve">
<style type="text/css">
	.st0{fill:#FFFFFF;}
</style>
<g>
	<path class="st0" d="M1070.2,291.3c0,0-2-127.6-146.5-127.6h-94.7l-36.8,173.4h-79.7l32.9-172.4h-83.7c0,0-55.8-2-97.7,23.9
		c98.3,179.4-58.5,346.2-58.5,346.2c-46.5-18.6-54.5-53.2-54.5-53.2c109-148.8,42.5-248.5,42.5-248.5
		c-54.2,48.4-65.5,143.9-67.8,180.2c0,1.8-0.7,82.7,51.9,118.8c0,0,30.6,19.9,59.1,23.3c28.6,3.3,135.6,0.7,135.6,0.7l30.6-140.9
		H600.9l0.3-1.3h-0.1l1.4-6.7l0-0.1l11.9-59h174.8l-0.1,0.7h0.1l-3.8,18.6l0,0.1l-38.1,187.3h105c0,0,43.1-1.1,62.1-11.8
		c-5.2-6.3-64.7-81.4-27.5-216.8c0,0,22-80.4,86.4-145.2c0,0,39.5,8,62.8,42.5c0,0-130.6,125.3-50.8,282.1
		C985.1,505.6,1074.2,430.8,1070.2,291.3z"/>
	<path class="st0" d="M362.7,541.2L362.7,541.2c-5.8,2.4-11.5,4.4-17.1,6.1c-15.4,4.1-35,5.7-51.1,6.2h-21.2h-1.7H114.8l-12.7,66.7
		h0l0,0l-0.7,3.7c0,0,0.1,0,0.1,0l-0.1,0.7H165c33.5,0.3,74.4,0.4,107.1,0h0.2v0c12-0.2,22.9-0.4,31.9-0.7
		c50.9-1.9,97.9-20.6,111.3-26.4C383.5,576.9,362.7,541.2,362.7,541.2z"/>
	<path class="st0" d="M1119.4,556.8c-65.1,0-68.1-13.3-68.1-13.3c130.6-111.6,99.8-280.2,99.4-282.5h0
		c-24.5-164-202.1-164-202.1-164s-164.5,0-279.1,0c-114.6,0-163.5,36.9-163.5,36.9v0c-32.2-19.6-79.9-36.9-147.4-36.9
		c-155.5,0-155.5,0-155.5,0l-47.8,241.9h81.7l35.2-173.4c0,0,145.5-8.6,166.8,17.3c0,0-105.8,102.1-96.5,249.8l-0.1,0
		c0.1,1.5,0.3,2.9,0.4,4.4c0.2,2.1,0.3,4.2,0.5,6.3l0.1,0c3.7,36.1,14.3,62.8,23,79.6c7.1,13.7,13.1,20.8,13.1,20.8
		c17.6,26.8,41,44.7,64.7,56.6c50.2,25.3,101.8,23.8,101.8,23.8s213.3-0.7,295,0c81.7,0.7,133.6-28.6,133.6-28.6
		c37.2,26.6,118.3,28.6,118.3,28.6h174.8l14.6-67.1C1282.2,556.8,1184.5,556.8,1119.4,556.8z M985.1,505.6
		c-79.7-156.8,50.8-282.1,50.8-282.1c-23.3-34.6-62.8-42.5-62.8-42.5c-64.4,64.8-86.4,145.2-86.4,145.2
		c-37.2,135.4,22.3,210.5,27.5,216.8c-19,10.6-62.1,11.8-62.1,11.8h-105l38.1-187.3l0-0.1l3.8-18.6H789l0.1-0.7H614.4l-11.9,59
		l0,0.1l-1.4,6.7h0.1l-0.3,1.3h101.9l-30.6,140.9c0,0-107,2.7-135.6-0.7c-28.6-3.3-59.1-23.3-59.1-23.3
		c-52.6-36.1-51.9-117-51.9-118.8c2.3-36.3,13.6-131.8,67.8-180.2c0,0,66.4,99.7-42.5,248.5c0,0,8,34.6,54.5,53.2
		c0,0,156.8-166.8,58.5-346.2c41.9-25.9,97.7-23.9,97.7-23.9h83.7l-32.9,172.4h79.7l36.8-173.4h94.7
		c144.5,0,146.5,127.6,146.5,127.6C1074.2,430.8,985.1,505.6,985.1,505.6z"/>
	<path class="st0" d="M1174.8,96.9c0,0-62.3-1.5-103.9,20.9c0,0,0,0,0,0c0,0,0,0-0.1,0c-0.2,0.1-0.4,0.2-0.5,0.3c0,0,0.1,0,0.1,0
		c-0.8,0.6-1.6,1.5-1.6,1.5c28.4,12.7,55.1,47.6,55.1,47.6l0,0c1.4,2,2.8,4.1,4.1,6.2c0,0,0,0,0,0c7.1-2.7,26.4-9.1,52.5-9.1
		c33.2,0,96.3,0.7,96.3,0.7l-27.2,141.2h81.7l40.9-209.3H1174.8z"/>
	<g>
		<path class="st0" d="M92.4,673.4c3.7-0.7,7.8-1.1,12.1-1.1c6.8,0,12.3,1.7,16,5.3c3.5,3.3,5.7,8.1,5.8,15.3c0,9.4-3.6,17.6-9,22.4
			c-5.1,4.5-11.5,6.4-20.9,6.4c-5.3,0-9.8-0.4-11.9-0.9L92.4,673.4z M95,713c1.1,0.2,2.5,0.3,4.1,0.3c5.1,0,9.5-2,12.4-5.7
			c3-3.8,4.5-8.8,4.5-14.7c0-7.7-3.8-12.2-11.5-12.2c-1.6,0-3,0.1-4,0.3L95,713z"/>
		<path class="st0" d="M139.4,708.8l-5.2,12.7h-9.9l21.3-48.7h12l5.1,48.7h-9.8l-0.9-12.7H139.4z M151.6,700.8l-0.8-10.5
			c-0.2-2.7-0.5-6.6-0.6-9.5H150c-1.1,3-2.3,6.7-3.5,9.5l-4.3,10.5H151.6z"/>
		<path class="st0" d="M173.6,721.4l-5.4-48.7h9.7l1.9,23.2c0.5,5.1,0.8,9.9,1,15h0.1c1.6-4.8,3.7-10,5.8-15l9.8-23.1H207
			l-22.6,48.7H173.6z"/>
		<path class="st0" d="M212.5,708.8l-5.2,12.7h-9.9l21.3-48.7h12l5.1,48.7H226l-0.9-12.7H212.5z M224.7,700.8l-0.8-10.5
			c-0.2-2.7-0.5-6.6-0.6-9.5h-0.1c-1.1,3-2.3,6.7-3.5,9.5l-4.3,10.5H224.7z"/>
		<path class="st0" d="M282.2,692.2c0,8.9-2.8,17.5-7.8,23c-4.1,4.4-9.6,7-16.1,7c-11.3,0-17.7-9-17.7-20.3c0-8.8,2.9-17.6,8-23.1
			c4.1-4.3,9.7-6.9,16-6.9C276.1,671.9,282.2,680.6,282.2,692.2z M255.9,684.3c-3.5,3.8-5.4,11.4-5.4,17.3c0,6.9,2.8,12,9.1,12
			c2.7,0,5.3-1.4,7.3-3.5c3.4-3.8,5.3-11.9,5.3-17.5c0-6.1-1.9-11.9-8.8-11.9C260.5,680.6,257.9,681.9,255.9,684.3z"/>
		<path class="st0" d="M332.5,719.2c-3.4,1.2-8.6,2.7-14.1,2.7c-6,0-11-1.7-14.6-5.4c-3.5-3.5-5.5-8.8-5.5-15c0-9.1,3.4-17,9-22.3
			c4.9-4.6,11.7-7.1,19.3-7.1c5.7,0,9.9,1.2,11.6,2.2l-2.8,8.8c-2-1-5.4-2-9.3-2c-4.3,0-8.2,1.4-11.2,3.9c-3.8,3.3-6.3,9.1-6.3,15.8
			c0,8.2,4.3,12.3,11.2,12.3c2.1,0,3.7-0.4,4.7-0.9l1.8-10.3h-6.7l1.4-8.3h15.9L332.5,719.2z"/>
		<path class="st0" d="M348.2,673.6c2.9-0.8,7.3-1.3,11.7-1.3c4.2,0,8.4,0.7,11.5,2.8c2.9,1.9,4.9,5,4.9,9.5
			c0,7.2-4.3,11.7-9.9,13.7v0.3c2.6,1.2,3.7,4.5,4.2,8.9c0.5,5.4,0.9,11.8,1.7,13.8h-9.6c-0.4-1.3-0.8-5.5-1.3-11.5
			c-0.4-5.9-2.2-7.7-5.9-7.7h-2.9l-3.2,19.2H340L348.2,673.6z M353.9,694.4h3.9c5.1,0,8.8-3.4,8.8-8.2c0-3.9-3-5.6-6.7-5.6
			c-1.8,0-2.9,0.1-3.6,0.4L353.9,694.4z"/>
		<path class="st0" d="M390.5,708.8l-5.2,12.7h-9.9l21.3-48.7h12l5.1,48.7H404l-0.9-12.7H390.5z M402.7,700.8l-0.8-10.5
			c-0.2-2.7-0.5-6.6-0.6-9.5h-0.1c-1.1,3-2.3,6.7-3.5,9.5l-4.3,10.5H402.7z"/>
		<path class="st0" d="M426.6,673.6c2.8-0.8,7.2-1.3,11.4-1.3c3.9,0,8.4,0.7,11.6,3.3c2.9,2.2,4.7,5.6,4.7,10.3
			c0,6.1-2.5,10.8-6,13.7c-3.6,3.1-8.6,4.5-13.9,4.5c-1.6,0-2.9-0.1-3.8-0.3l-3,17.6h-9.1L426.6,673.6z M432.1,695.4
			c1,0.2,2,0.4,3.6,0.4c5.6,0,9.3-4,9.3-8.9c0-4.7-3-6.2-6.7-6.2c-1.8,0-3,0.1-3.8,0.4L432.1,695.4z"/>
		<path class="st0" d="M472.7,672.7l-3.2,19h15.9l3.2-19h9.3l-8.3,48.7h-9.3l3.4-20.5h-15.8l-3.5,20.5h-9.3l8.3-48.7H472.7z"/>
		<path class="st0" d="M515.7,672.7l-8.3,48.7h-9.3l8.3-48.7H515.7z"/>
		<path class="st0" d="M548.9,720c-2.3,1.2-6.3,2.1-11.5,2.1c-11.5,0-19.3-7.8-19.3-20.7c0-10.9,4.4-19.4,11-24.4
			c4.5-3.5,9.9-5.2,16.1-5.2c4.7,0,8.3,1.2,9.5,2.1l-2.5,8.5c-1.3-0.7-4.2-1.6-7.9-1.6c-3.8,0-7.3,1.3-10,3.8c-3.7,3.3-6,8.9-6,15.7
			c0,7.7,3.9,12.9,11.6,12.9c3,0,6.1-0.6,8.3-1.6L548.9,720z"/>
		<path class="st0" d="M574,673.4c3.7-0.7,7.8-1.1,12.1-1.1c6.8,0,12.3,1.7,16,5.3c3.5,3.3,5.7,8.1,5.8,15.3c0,9.4-3.6,17.6-9,22.4
			c-5.1,4.5-11.5,6.4-20.9,6.4c-5.3,0-9.8-0.4-11.9-0.9L574,673.4z M576.6,713c1.1,0.2,2.5,0.3,4.1,0.3c5.1,0,9.5-2,12.4-5.7
			c3-3.8,4.5-8.8,4.5-14.7c0-7.7-3.8-12.2-11.5-12.2c-1.6,0-3,0.1-4,0.3L576.6,713z"/>
		<path class="st0" d="M638.4,700.7h-15.6l-2,11.8h17.4l-1.5,8.9H610l8.3-48.7h25.9l-1.6,8.9h-16.5l-1.8,10.4h15.6L638.4,700.7z"/>
		<path class="st0" d="M645.4,710.1c2.6,1.7,6.3,3.1,10.3,3.1c3.6,0,6.9-1.9,6.9-5.7c0-2.7-1.9-4.6-5.9-6.9
			c-4.7-2.8-9.1-6.6-9.1-12.9c0-9.8,7.7-15.8,17.3-15.8c5.3,0,8.4,1.3,10.3,2.5l-2.9,8.7c-1.4-0.9-4.5-2.2-8.2-2.2
			c-4.3,0-6.6,2.5-6.6,5.1c0,2.8,2.7,4.6,6.4,6.9c5.3,3.1,8.7,7.1,8.7,12.9c0,10.8-8,16.4-17.8,16.4c-6.1,0-10.4-1.7-12.5-3.5
			L645.4,710.1z"/>
		<path class="st0" d="M694,672.7l-8.3,48.7h-9.3l8.3-48.7H694z"/>
		<path class="st0" d="M730.4,719.2c-3.4,1.2-8.6,2.7-14.1,2.7c-6,0-11-1.7-14.6-5.4c-3.5-3.5-5.5-8.8-5.5-15c0-9.1,3.4-17,9-22.3
			c4.9-4.6,11.7-7.1,19.3-7.1c5.7,0,9.9,1.2,11.6,2.2l-2.8,8.8c-2-1-5.4-2-9.3-2c-4.3,0-8.2,1.4-11.2,3.9c-3.8,3.3-6.3,9.1-6.3,15.8
			c0,8.2,4.3,12.3,11.2,12.3c2.1,0,3.7-0.4,4.7-0.9l1.8-10.3h-6.7l1.4-8.3h15.9L730.4,719.2z"/>
		<path class="st0" d="M738,721.4l8.3-48.7h11l5.8,18.6c1.8,6.2,2.9,11.3,4,16.6h0.2c0.2-5,0.8-10.3,2-17.5l3-17.7h8.7l-8.2,48.7
			h-9.7l-6.1-19.5c-1.9-6.6-3.1-11-4.3-17l-0.2,0.1c-0.5,4.7-1.6,11.6-2.9,19.3l-2.9,17.1H738z"/>
		<path class="st0" d="M809.6,700.7H794l-2,11.8h17.4l-1.5,8.9h-26.8l8.3-48.7h25.9l-1.6,8.9h-16.5l-1.8,10.4h15.6L809.6,700.7z"/>
		<path class="st0" d="M822.9,673.6c2.9-0.8,7.3-1.3,11.7-1.3c4.2,0,8.4,0.7,11.5,2.8c2.9,1.9,4.9,5,4.9,9.5
			c0,7.2-4.3,11.7-9.9,13.7v0.3c2.6,1.2,3.7,4.5,4.2,8.9c0.5,5.4,0.9,11.8,1.7,13.8h-9.6c-0.4-1.3-0.8-5.5-1.3-11.5
			c-0.4-5.9-2.2-7.7-5.9-7.7h-2.9l-3.2,19.2h-9.3L822.9,673.6z M828.6,694.4h3.9c5.1,0,8.8-3.4,8.8-8.2c0-3.9-3-5.6-6.7-5.6
			c-1.8,0-2.9,0.1-3.6,0.4L828.6,694.4z"/>
		<path class="st0" d="M854.4,710.1c2.6,1.7,6.3,3.1,10.3,3.1c3.6,0,6.9-1.9,6.9-5.7c0-2.7-1.9-4.6-5.9-6.9
			c-4.7-2.8-9.1-6.6-9.1-12.9c0-9.8,7.7-15.8,17.3-15.8c5.3,0,8.4,1.3,10.3,2.5l-2.9,8.7c-1.4-0.9-4.5-2.2-8.2-2.2
			c-4.3,0-6.6,2.5-6.6,5.1c0,2.8,2.7,4.6,6.4,6.9c5.3,3.1,8.7,7.1,8.7,12.9c0,10.8-8,16.4-17.8,16.4c-6.1,0-10.4-1.7-12.5-3.5
			L854.4,710.1z"/>
		<path class="st0" d="M930.3,720c-2.3,1.2-6.3,2.1-11.5,2.1c-11.5,0-19.3-7.8-19.3-20.7c0-10.9,4.4-19.4,11-24.4
			c4.5-3.5,9.9-5.2,16.1-5.2c4.7,0,8.3,1.2,9.5,2.1l-2.5,8.5c-1.3-0.7-4.2-1.6-7.9-1.6c-3.8,0-7.3,1.3-10,3.8c-3.7,3.3-6,8.9-6,15.7
			c0,7.7,3.9,12.9,11.6,12.9c3,0,6.1-0.6,8.3-1.6L930.3,720z"/>
		<path class="st0" d="M977.3,692.2c0,8.9-2.8,17.5-7.8,23c-4.1,4.4-9.6,7-16.2,7c-11.4,0-17.7-9-17.7-20.3c0-8.8,2.9-17.6,8-23.1
			c4.1-4.3,9.7-6.9,16-6.9C971.2,671.9,977.3,680.6,977.3,692.2z M951,684.3c-3.5,3.8-5.4,11.4-5.4,17.3c0,6.9,2.8,12,9.1,12
			c2.7,0,5.3-1.4,7.3-3.5c3.4-3.8,5.3-11.9,5.3-17.5c0-6.1-1.9-11.9-8.8-11.9C955.6,680.6,953,681.9,951,684.3z"/>
		<path class="st0" d="M1016,721.4l2.7-20.1c0.7-5.3,1.7-12,2.9-19h-0.2c-2.4,6.3-5.1,13-7.5,18.4l-9,20h-7.3l-1.6-19.7
			c-0.4-5.4-0.7-12.1-1-18.6H995c-1.2,6.4-2.5,13.7-3.6,19l-4.3,20.1h-8.6l11-48.7h12.5l1.4,18.5c0.3,4.6,0.7,10.1,0.8,15.5h0.3
			c1.7-5.4,4-11.1,5.9-15.5l8.1-18.5h12.6l-5.9,48.7H1016z"/>
		<path class="st0" d="M1069.2,721.4l2.7-20.1c0.7-5.3,1.7-12,2.9-19h-0.2c-2.4,6.3-5.1,13-7.5,18.4l-9,20h-7.3l-1.6-19.7
			c-0.4-5.4-0.7-12.1-1-18.6h-0.1c-1.2,6.4-2.5,13.7-3.6,19l-4.3,20.1h-8.6l11-48.7h12.5l1.4,18.5c0.3,4.6,0.7,10.1,0.8,15.5h0.3
			c1.7-5.4,4-11.1,5.9-15.5l8.1-18.5h12.6l-5.9,48.7H1069.2z"/>
		<path class="st0" d="M1103.4,672.7l-4.8,28.1c-0.3,1.7-0.5,3.6-0.5,5.8c0,3.9,2.1,6.9,6.4,6.9c4.9,0,8.1-3.6,9.7-12.7l4.8-28.1
			h9.3l-4.7,27.7c-2.5,14.8-8.4,21.8-20.2,21.8c-9,0-14.5-5.1-14.5-15.5c0-2.1,0.3-4.5,0.6-6.8l4.6-27.2H1103.4z"/>
		<path class="st0" d="M1128.5,721.4l8.3-48.7h11l5.8,18.6c1.8,6.2,2.9,11.3,4,16.6h0.2c0.2-5,0.8-10.3,2-17.5l3-17.7h8.7l-8.2,48.7
			h-9.7l-6.1-19.5c-1.9-6.6-3.1-11-4.3-17l-0.2,0.1c-0.5,4.7-1.6,11.6-2.9,19.3l-2.9,17.1H1128.5z"/>
		<path class="st0" d="M1189.1,672.7l-8.3,48.7h-9.3l8.3-48.7H1189.1z"/>
		<path class="st0" d="M1204.1,681.8h-11.5l1.6-9.1h32.5l-1.6,9.1h-11.7l-6.7,39.6h-9.3L1204.1,681.8z"/>
		<path class="st0" d="M1234.3,721.4l3.4-19.9l-8.5-28.9h10l2.8,12.4c0.8,4,1.2,6.4,1.7,8.8h0.1c1.3-2.6,2.6-5.4,4.5-8.9l6.5-12.3
			h11.2l-18.9,28.6l-3.4,20.1H1234.3z"/>
	</g>
</g>
</svg>
